<svg id="Capa_1" enable-background="new 0 0 511.997 511.997" height="512" viewBox="0 0 511.997 511.997" width="512" xmlns="http://www.w3.org/2000/svg"><g><path d="m304.684 302.871c-.018-2.167-.973-4.22-2.619-5.631-1.645-1.41-3.816-2.041-5.965-1.727-12.447 1.819-22.735-3.041-33.227-8.943v-29.903c0-4.142-3.358-7.5-7.5-7.5s-7.5 3.358-7.5 7.5v21.599c-10.605-5.272-22.433-8.931-36.209-4.828-3.141.936-5.311 3.802-5.358 7.079-.753 51.946-.372 104.429 1.132 155.99.753 25.973 21.533 46.369 47.325 46.433h1.224c25.78-.064 46.564-20.459 47.317-46.433v.001c1.291-44.237 1.756-89.2 1.38-133.637zm-16.373 133.2v.001c-.517 17.826-14.731 31.824-32.342 31.867h-1.187c-17.623-.043-31.833-14.041-32.35-31.869-1.439-49.343-1.846-99.531-1.21-149.28 10.279-.925 19.525 4.386 29.997 10.4 11.044 6.343 23.333 13.402 38.524 13.705.258 41.675-.223 83.744-1.432 125.176z"/><path d="m417.519 22.151c-10.559-13.243-22.248-21.053-32.916-21.99-13.58-1.195-26.768 4.311-36.194 15.095-6.671 7.631-10.713 17.027-11.89 27.146-21.51-16.37-43.69-21.784-61.44-14.43-17.035 7.057-27.206 25.065-27.206 48.172v7.275c-18.516-10.616-36.504-13.585-53.624-8.803-25.553 7.136-42.333 29.825-50.774 44.378-13.402-17.3-34.168-22.425-50.548-17.846-3.989 1.116-6.319 5.253-5.204 9.243 1.115 3.989 5.251 6.318 9.243 5.204 12.504-3.497 28.888 1.602 37.971 17.617-26.089 29.341-23.811 64.439-23.696 65.984.294 3.941 3.582 6.942 7.471 6.942.187 0 .376-.007.566-.021 4.131-.308 7.229-3.907 6.921-8.037-.024-.325-2.107-32.556 22.593-57.717 19.115-12.36 47.157-17.741 61.644-5.407 18.015 15.324 18.526 28.511 15.783 36.876-5.45 16.616-28.789 30.987-53.136 32.719-31.477 2.241-51.255 24.744-60.181 37.82-32.483-38.685-39.716-88.627-31.884-111.675 1.333-3.922-.766-8.182-4.688-9.514-3.92-1.332-8.182.766-9.514 4.688-10.979 32.306 1.913 92.815 41.884 134.24 1.423 1.475 3.376 2.285 5.393 2.285.384 0 .77-.029 1.155-.089 2.41-.373 4.492-1.902 5.575-4.087.146-.294 12.177-24.038 35.461-34.253 1.772 4.013 4.27 7.696 7.45 10.884 4.067 4.059 8.936 7.017 14.243 8.746-1.577 64.162-1.45 129.31.411 193.763.584 20.005 8.778 38.742 23.072 52.761 14.331 14.055 33.233 21.825 53.244 21.879h1.361c35.047-.098 65.488-24.023 74.025-58.181 1.004-4.018-1.439-8.09-5.458-9.095-4.016-1.002-8.09 1.439-9.095 5.458-6.87 27.487-31.342 46.739-59.493 46.818h-1.32c-16.054-.043-31.24-6.289-42.761-17.588-11.512-11.29-18.111-26.38-18.581-42.487-1.84-63.715-1.975-128.111-.441-191.555h124.869c1.415 58.481 1.408 117.845-.054 176.594-.103 4.141 3.17 7.581 7.311 7.684.063.001.127.002.19.002 4.056 0 7.393-3.236 7.494-7.313 1.48-59.472 1.477-119.572.022-178.757 14.364-4.714 24.769-18.242 24.769-34.163 0-9.591-3.736-18.617-10.53-25.424-6.797-6.783-15.826-10.519-25.424-10.519h-58.716v-97.329c0-17.083 6.541-29.59 17.946-34.314 12.829-5.316 29.78-.553 46.999 12.761-23.245 5.432-45.81 19.753-50.939 41.136-3.371 14.051-5.927 39.85 14.821 54.769 8.721 6.271 20.222 9.354 32.635 9.354 15.216 0 31.798-4.634 46.297-13.711 29.718-18.605 65.53-.357 65.873-.179 2.164 1.138 4.747 1.15 6.92.033 2.174-1.118 3.667-3.225 4.001-5.646 7.004-50.767-11.733-95.4-29.906-118.196zm-81.112 172.446c3.957 3.965 6.136 9.227 6.136 14.818 0 11.554-9.4 20.953-20.953 20.953h-132.441c-5.591 0-10.853-2.179-14.806-6.124-1.33-1.333-2.446-2.819-3.36-4.41 1.04-.137 2.094-.246 3.165-.323 25.295-1.799 48.526-14.189 60.258-31.04h87.184c5.597 0 10.863 2.18 14.817 6.126zm-95.078-21.125c5.649-22.854-10.631-40.974-21.172-49.941-14.868-12.658-37.569-12.707-57.864-6.036 7.997-11.287 20.113-24.021 36.048-28.448 15.208-4.226 31.859-.14 49.533 12.122v72.303zm192.239-44.977c-14.921-5.298-44.157-11.808-70.895 4.931-20.69 12.953-48.018 15.1-62.215 4.892-12.949-9.311-12.037-26.398-8.992-39.092 3.526-14.701 24.607-30.695 53.78-32.013.041-.002.08-.01.121-.012.055-.004.109-.001.165-.006 1.269-.099 29.934-1.736 52.383 37.059 1.981 3.423 6.316 4.67 9.845 2.885 3.855-1.95 5.256-6.743 3.091-10.482-20.667-35.678-47.014-42.891-59.501-44.211-.938-10.295 1.978-20.026 8.353-27.32 5.694-6.513 13.35-10.125 21.295-10.125.762 0 1.528.034 2.294.101 6.345.558 14.756 6.688 22.497 16.399 16.275 20.414 30.412 57.47 27.779 96.994z"/><path d="m255.374 226.939c4.142 0 7.5-3.358 7.5-7.5v-19.296c0-4.142-3.358-7.5-7.5-7.5s-7.5 3.358-7.5 7.5v19.296c0 4.142 3.358 7.5 7.5 7.5z"/><path d="m234.984 344.294h11.955c4.142 0 7.5-3.358 7.5-7.5s-3.358-7.5-7.5-7.5h-11.955c-4.142 0-7.5 3.358-7.5 7.5s3.358 7.5 7.5 7.5z"/><path d="m271.612 363.567h-11.955c-4.142 0-7.5 3.358-7.5 7.5s3.358 7.5 7.5 7.5h11.955c4.142 0 7.5-3.358 7.5-7.5s-3.358-7.5-7.5-7.5z"/><path d="m244.409 411.188h-11.955c-4.142 0-7.5 3.358-7.5 7.5s3.358 7.5 7.5 7.5h11.955c4.142 0 7.5-3.358 7.5-7.5-.001-4.142-3.358-7.5-7.5-7.5z"/></g></svg>