<?xml version="1.0" encoding="UTF-8" standalone="no"?>
<!-- Created with Inkscape (http://www.inkscape.org/) -->

<svg
   version="1.1"
   id="svg645"
   xml:space="preserve"
   width="682.66669"
   height="682.66669"
   viewBox="0 0 682.66669 682.66669"
   xmlns="http://www.w3.org/2000/svg"
   xmlns:svg="http://www.w3.org/2000/svg"><defs
     id="defs649"><clipPath
       clipPathUnits="userSpaceOnUse"
       id="clipPath659"><path
         d="M 0,512 H 512 V 0 H 0 Z"
         id="path657" /></clipPath></defs><g
     id="g651"
     transform="matrix(1.3333333,0,0,-1.3333333,0,682.66667)"><g
       id="g653"><g
         id="g655"
         clip-path="url(#clipPath659)"><g
           id="g661"
           transform="translate(226,346)"><path
             d="m 0,0 h 150 v -316 c 0,-11.05 -8.95,-20 -20,-20 h -260 c -11.05,0 -20,8.95 -20,20 v 299.37"
             style="fill:none;stroke:#000000;stroke-width:20;stroke-linecap:round;stroke-linejoin:round;stroke-miterlimit:10;stroke-dasharray:none;stroke-opacity:1"
             id="path663" /></g><g
           id="g665"
           transform="translate(46,502)"><path
             d="M 0,0 H 90 V -96"
             style="fill:none;stroke:#000000;stroke-width:20;stroke-linecap:round;stroke-linejoin:round;stroke-miterlimit:10;stroke-dasharray:none;stroke-opacity:1"
             id="path667" /></g><g
           id="g669"
           transform="translate(136,316)"><path
             d="M 0,0 V -150"
             style="fill:none;stroke:#000000;stroke-width:20;stroke-linecap:round;stroke-linejoin:round;stroke-miterlimit:10;stroke-dasharray:none;stroke-opacity:1"
             id="path671" /></g><g
           id="g673"
           transform="translate(136,406)"><path
             d="m 0,0 -90,-60 c 0,0 11.59,-8.63 30,-16.63 15.92,-6.92 36.94,-13.37 60,-13.37 49.71,0 90,30 90,30 z"
             style="fill:none;stroke:#000000;stroke-width:20;stroke-linecap:round;stroke-linejoin:round;stroke-miterlimit:10;stroke-dasharray:none;stroke-opacity:1"
             id="path675" /></g><g
           id="g677"
           transform="translate(76,226)"><path
             d="M 0,0 H 120"
             style="fill:none;stroke:#000000;stroke-width:20;stroke-linecap:round;stroke-linejoin:round;stroke-miterlimit:10;stroke-dasharray:none;stroke-opacity:1"
             id="path679" /></g><g
           id="g681"
           transform="translate(316,226)"><path
             d="M 0,0 H 60"
             style="fill:none;stroke:#000000;stroke-width:20;stroke-linecap:round;stroke-linejoin:round;stroke-miterlimit:10;stroke-dasharray:none;stroke-opacity:1"
             id="path683" /></g><g
           id="g685"
           transform="translate(316,226)"><path
             d="M 0,0 -60,60 -120,0 -60,-60 Z"
             style="fill:none;stroke:#000000;stroke-width:20;stroke-linecap:round;stroke-linejoin:round;stroke-miterlimit:10;stroke-dasharray:none;stroke-opacity:1"
             id="path687" /></g><g
           id="g689"
           transform="translate(393.6504,434.2598)"><path
             d="M 0,0 C -28.49,5.68 -59.2,-2.53 -81.29,-24.62 L 45.989,-151.9 c 22.091,22.09 30.301,52.8 24.62,81.29 C 67.26,-53.76 59.06,-37.69 45.989,-24.62 32.92,-11.55 16.85,-3.35 0,0 Z"
             style="fill:none;stroke:#000000;stroke-width:20;stroke-linecap:round;stroke-linejoin:round;stroke-miterlimit:10;stroke-dasharray:none;stroke-opacity:1"
             id="path691" /></g><g
           id="g693"
           transform="translate(393.6504,434.2598)"><path
             d="m 0,0 -17.65,-88.26 88.259,17.65"
             style="fill:none;stroke:#000000;stroke-width:20;stroke-linecap:round;stroke-linejoin:round;stroke-miterlimit:10;stroke-dasharray:none;stroke-opacity:1"
             id="path695" /></g><g
           id="g697"
           transform="translate(236.4165,70)"><path
             d="m 0,0 c 0,-5.523 -4.478,-10 -10,-10 -5.523,0 -10,4.477 -10,10 0,5.523 4.477,10 10,10 C -4.478,10 0,5.523 0,0"
             style="fill:#000000;fill-opacity:1;fill-rule:nonzero;stroke:none"
             id="path699" /></g><g
           id="g701"
           transform="translate(376,130)"><path
             d="m 0,0 c 0,-33.14 -26.86,-60 -60,-60 h -44.584"
             style="fill:none;stroke:#000000;stroke-width:20;stroke-linecap:round;stroke-linejoin:round;stroke-miterlimit:10;stroke-dasharray:none;stroke-opacity:1"
             id="path703" /></g><g
           id="g705"
           transform="translate(181.4165,70)"><path
             d="m 0,0 h -45.417 c -33.14,0 -60,26.86 -60,60"
             style="fill:none;stroke:#000000;stroke-width:20;stroke-linecap:round;stroke-linejoin:round;stroke-miterlimit:10;stroke-dasharray:none;stroke-opacity:1"
             id="path707" /></g></g></g></g></svg>
