<svg enable-background="new 0 0 64 64" height="512" viewBox="0 0 64 64" width="512" xmlns="http://www.w3.org/2000/svg"><g id="Layer_7" display="none"><path d="m-89-173h410v410h-410z" display="inline" fill="#fff"/></g><g id="Layer_9" display="none"><path d="m-8-8h80v80h-80z" display="inline" fill="#fff"/></g><g id="filled" display="none"><g stroke="#000" stroke-linecap="square" stroke-miterlimit="10" stroke-width="2"><path d="m36 39c0-9.95 8.05-18 18-18" display="inline" fill="none"/><path d="m24 36c0-5.53-4.47-10-10-10" display="inline" fill="none"/><circle cx="44" cy="36" display="inline" fill="#ffd21e" r="2"/><circle cx="46" cy="15" display="inline" fill="#ff375b" r="2"/><circle cx="54" cy="28" display="inline" fill="#68e4de" r="2"/><circle cx="17" cy="34" display="inline" fill="#68e4de" r="2"/><path d="m15 44h34v18h-34z" display="inline" fill="#ff375b"/><path d="m29 44h6v18h-6z" display="inline" fill="#fff"/><path d="m56 3 1.65 2.99 3.35.64-2.33 2.49.42 3.39-3.09-1.45-3.09 1.45.42-3.39-2.33-2.49 3.35-.64z" display="inline" fill="#ffd21e"/><path d="m32 21.39 1.32 2.39 2.68.52-1.87 1.99.34 2.71-2.47-1.16-2.47 1.16.34-2.71-1.87-1.99 2.68-.52z" display="inline" fill="#ffd21e"/></g><g display="inline"><g style="fill:none;stroke:#000;stroke-width:2;stroke-linecap:square;stroke-linejoin:bevel;stroke-miterlimit:10"><path d="m27.27 8.56c1.12-1.6.73-3.8-.87-4.92s-3.8-.73-4.92.87c-.37.53-.57 1.12-.62 1.72l-.47 6 5.48-2.49c.54-.26 1.03-.65 1.4-1.18z"/><path d="m12.6 12.49c-1.77-.82-2.53-2.93-1.71-4.69.82-1.77 2.93-2.53 4.69-1.71.58.27 1.05.68 1.4 1.18l3.41 4.96-5.99.58c-.6.05-1.22-.05-1.8-.32z"/></g></g><path d="m3.16 12.12h36v6h-36z" style="display:inline;fill:#ff6678;stroke:#000;stroke-width:2;stroke-linecap:square;stroke-miterlimit:10" transform="matrix(.966 -.259 .259 .966 -3.193 5.993)"/><path d="m14 40c-1.86-3.1-5.21-5-8.83-5h-1.17" style="display:inline;fill:none;stroke:#000;stroke-width:2;stroke-linecap:square;stroke-miterlimit:10"/><path d="m49 40c1.84-3.68 5.6-6 9.71-6h1.29" style="display:inline;fill:none;stroke:#000;stroke-width:2;stroke-linecap:square;stroke-miterlimit:10"/></g><g id="filled_expand" display="none"><g display="inline"><path d="m15 44h34v18h-34z" fill="#ff5078"/><path d="m32 44h17v18h-17z" fill="#ff1739"/><path d="m29 44h6v18h-6z" fill="#9bebe6"/><path d="m32 44h3v18h-3z" fill="#5fe4dc"/><circle cx="44" cy="36" fill="#ffdc32" r="2"/><circle cx="46" cy="15" fill="#ff5078" r="2"/><circle cx="54" cy="28" fill="#5fe4dc" r="2"/><circle cx="17" cy="34" fill="#5fe4dc" r="2"/><path d="m56 3 1.65 2.99 3.35.64-2.33 2.49.42 3.39-3.09-1.45-3.09 1.45.42-3.39-2.33-2.49 3.35-.64z" fill="#ffdc32"/><path d="m32 21.39 1.32 2.39 2.68.52-1.87 1.99.34 2.71-2.47-1.16-2.47 1.16.34-2.71-1.87-1.99 2.68-.52z" fill="#fff06e"/><path d="m34.47 29-.34-2.71 1.87-1.99-2.68-.52-1.32-2.39v6.45z" fill="#ffdc32"/><path d="m3.16 12.12h36v6h-36z" fill="#ff7fa8" transform="matrix(.966 -.259 .259 .966 -3.193 5.993)"/><path d="m20.86 9.79h18v6h-18z" fill="#ff5078" transform="matrix(.966 -.259 .259 .966 -2.294 8.163)"/></g><g display="inline"><path d="m35 40h2v-1c0-9.37 7.63-17 17-17h1v-2h-1c-10.48 0-19 8.52-19 19z"/><path d="m25 37v-1c0-6.07-4.93-11-11-11h-1v2h1c4.96 0 9 4.04 9 9v1z"/><path d="m41 36c0 1.65 1.35 3 3 3s3-1.35 3-3-1.35-3-3-3-3 1.35-3 3zm4 0c0 .55-.45 1-1 1s-1-.45-1-1 .45-1 1-1 1 .45 1 1z"/><path d="m46 18c1.65 0 3-1.35 3-3s-1.35-3-3-3-3 1.35-3 3 1.35 3 3 3zm0-4c.55 0 1 .45 1 1s-.45 1-1 1-1-.45-1-1 .45-1 1-1z"/><path d="m51 28c0 1.65 1.35 3 3 3s3-1.35 3-3-1.35-3-3-3-3 1.35-3 3zm4 0c0 .55-.45 1-1 1s-1-.45-1-1 .45-1 1-1 1 .45 1 1z"/><path d="m14 34c0 1.65 1.35 3 3 3s3-1.35 3-3-1.35-3-3-3-3 1.35-3 3zm4 0c0 .55-.45 1-1 1s-1-.45-1-1 .45-1 1-1 1 .45 1 1z"/><path d="m14 43v20h36v-20zm2 18v-16h12v16zm14 0v-16h4v16zm18-16v16h-12v-16z"/><path d="m51.69 14.19 4.31-2.02 4.31 2.02-.59-4.72 3.25-3.47-4.67-.9-2.3-4.17-2.3 4.17-4.67.9 3.25 3.47zm3.31-7.31 1-1.81 1 1.81 2.03.39-1.41 1.51.26 2.05-1.88-.87-1.87.88.26-2.05-1.41-1.51z"/><path d="m33.97 22.89-1.97-3.57-1.97 3.57-4 .77 2.79 2.97-.51 4.04 3.69-1.73 3.69 1.73-.51-4.04 2.79-2.97zm-.72 4.43-1.25-.58-1.25.59.17-1.38-.95-1.01 1.36-.26.67-1.22.67 1.21 1.36.26-.95 1.01z"/><path d="m3.85 23.9 36.71-9.83-2.07-7.73-10.4 2.79c.69-.99.96-2.19.75-3.38s-.87-2.23-1.86-2.93c-.99-.69-2.19-.96-3.39-.75-1.19.21-2.23.87-2.93 1.86-.45.65-.73 1.41-.8 2.21l-.25 3.18-1.81-2.63c-.46-.65-1.08-1.18-1.8-1.51-2.27-1.06-4.97-.07-6.02 2.19-1.06 2.26-.07 4.96 2.19 6.02l-10.39 2.79zm18-17.59c.04-.44.19-.87.45-1.23.39-.55.97-.92 1.63-1.04.15-.03.3-.04.45-.04.51 0 1.02.16 1.45.46.55.39.92.97 1.04 1.63.12.67-.03 1.34-.42 1.89-.25.36-.6.65-1 .84l-3.93 1.79zm-10.06 1.91c.43-.92 1.35-1.46 2.3-1.46.36 0 .72.08 1.07.24.4.19.75.48 1 .84l2.45 3.56-4.3.42c-.44.04-.89-.04-1.29-.22-1.27-.61-1.82-2.12-1.23-3.38zm25.28.57 1.04 3.86-32.84 8.8-1.04-3.86z"/><path d="m14.86 39.49c-2.03-3.39-5.75-5.49-9.69-5.49h-2.17v2h2.17c3.25 0 6.3 1.73 7.97 4.51l.51.86 1.71-1.03z"/><path d="m48.11 39.55-.45.89 1.79.89.45-.89c1.68-3.36 5.06-5.45 8.81-5.45h2.29v-2h-2.29c-4.52.01-8.58 2.52-10.6 6.56z"/></g></g><g id="flat" display="none"><g display="inline"><path d="m15 44h34v18h-34z" fill="#ff416e"/><path d="m32 44h17v18h-17z" fill="#f00023"/><path d="m29 44h6v18h-6z" fill="#9bebe6"/><path d="m32 44h3v18h-3z" fill="#5fe4dc"/><path d="m37 40h-2v-1c0-10.48 8.52-19 19-19h1v2h-1c-9.37 0-17 7.63-17 17z" fill="#ffd723"/><path d="m25 37h-2v-1c0-4.96-4.04-9-9-9h-1v-2h1c6.07 0 11 4.93 11 11z" fill="#ffed69"/><circle cx="44" cy="36" fill="#ffd723" r="2"/><circle cx="46" cy="15" fill="#ff416e" r="2"/><circle cx="54" cy="28" fill="#5fe4dc" r="2"/><circle cx="17" cy="34" fill="#5fe4dc" r="2"/><path d="m56 3 1.65 2.99 3.35.64-2.33 2.49.42 3.39-3.09-1.45-3.09 1.45.42-3.39-2.33-2.49 3.35-.64z" fill="#ffd723"/><path d="m32 21.39 1.32 2.39 2.68.52-1.87 1.99.34 2.71-2.47-1.16-2.47 1.16.34-2.71-1.87-1.99 2.68-.52z" fill="#ffed69"/><path d="m34.47 29-.34-2.71 1.87-1.99-2.68-.52-1.32-2.39v6.45z" fill="#ffd723"/><path d="m13.66 41.37-.51-.86c-1.68-2.78-4.73-4.51-7.98-4.51h-2.17v-2h2.17c3.95 0 7.66 2.1 9.69 5.49l.51.86z" fill="#ffed69"/><path d="m49.45 41.34-1.79-.89.45-.89c2.02-4.04 6.08-6.55 10.6-6.55h2.29v2h-2.29c-3.76 0-7.13 2.09-8.81 5.45z" fill="#ffd723"/><path d="m3.16 12.12h36v6h-36z" fill="#ff6e91" transform="matrix(.966 -.259 .259 .966 -3.193 5.993)"/><path d="m20.86 9.79h18v6h-18z" fill="#ff416e" transform="matrix(.966 -.259 .259 .966 -2.294 8.163)"/><path d="m28.84 5.75c-.21-1.19-.87-2.23-1.86-2.93-.99-.69-2.19-.96-3.39-.75-1.19.21-2.23.87-2.93 1.86-.45.65-.73 1.41-.8 2.21l-.25 3.18-1.81-2.63c-.46-.65-1.08-1.18-1.8-1.51-2.27-1.06-4.97-.07-6.02 2.19-1.06 2.27-.07 4.97 2.19 6.02.6.28 1.25.42 1.91.42.14 0 .27-.01.41-.02l6.16-.6 5.64-2.57c.72-.34 1.34-.86 1.8-1.51.69-.97.96-2.17.75-3.36zm-14.53 6.06c-.44.04-.89-.04-1.29-.22-1.27-.59-1.82-2.1-1.23-3.37.43-.92 1.35-1.46 2.3-1.46.36 0 .72.08 1.07.24.4.19.75.48 1 .84l2.45 3.56zm12.14-3.82c-.25.36-.6.65-1 .84l-3.93 1.79.34-4.3c.04-.44.19-.87.45-1.23.39-.55.97-.92 1.63-1.04.14-.04.29-.05.44-.05.51 0 1.02.16 1.45.46.55.39.92.97 1.04 1.63.11.67-.03 1.34-.42 1.9z" fill="#c6f4f3"/><path d="m28.84 5.75c-.21-1.19-.87-2.23-1.86-2.93-.99-.69-2.19-.96-3.39-.75-1.19.21-2.23.87-2.93 1.86-.45.65-.73 1.41-.8 2.21l-.25 3.18 1.04 3.88 5.64-2.57c.72-.34 1.34-.86 1.8-1.51.69-.98.96-2.18.75-3.37zm-2.39 2.24c-.25.36-.6.65-1 .84l-3.93 1.79.34-4.3c.04-.44.19-.87.45-1.23.39-.55.97-.92 1.63-1.04.14-.04.29-.05.44-.05.51 0 1.02.16 1.45.46.55.39.92.97 1.04 1.63.11.67-.03 1.34-.42 1.9z" fill="#9bebe6"/></g></g><g id="Line" display="none"><g display="inline"><g fill="none" stroke="#000" stroke-linecap="square" stroke-miterlimit="10" stroke-width="2"><path d="m36 39c0-9.95 8.05-18 18-18"/><path d="m24 36c0-5.53-4.47-10-10-10"/><circle cx="44" cy="36" r="2"/><circle cx="46" cy="15" r="2"/><circle cx="54" cy="28" r="2"/><circle cx="17" cy="34" r="2"/><path d="m15 44h34v18h-34z"/><path d="m29 44h6v18h-6z"/><path d="m56 3 1.65 2.99 3.35.64-2.33 2.49.42 3.39-3.09-1.45-3.09 1.45.42-3.39-2.33-2.49 3.35-.64z"/><path d="m32 21.39 1.32 2.39 2.68.52-1.87 1.99.34 2.71-2.47-1.16-2.47 1.16.34-2.71-1.87-1.99 2.68-.52z"/></g><g><g style="fill:none;stroke:#000;stroke-width:2;stroke-linecap:square;stroke-linejoin:bevel;stroke-miterlimit:10"><path d="m27.27 8.56c1.12-1.6.73-3.8-.87-4.92s-3.8-.73-4.92.87c-.37.53-.57 1.12-.62 1.72l-.47 6 5.48-2.49c.54-.26 1.03-.65 1.4-1.18z"/><path d="m12.6 12.49c-1.77-.82-2.53-2.93-1.71-4.69.82-1.77 2.93-2.53 4.69-1.71.58.27 1.05.68 1.4 1.18l3.41 4.96-5.99.58c-.6.05-1.22-.05-1.8-.32z"/></g></g><path d="m3.16 12.12h36v6h-36z" fill="none" stroke="#000" stroke-linecap="square" stroke-miterlimit="10" stroke-width="2" transform="matrix(.966 -.259 .259 .966 -3.193 5.993)"/><path d="m14 40c-1.86-3.1-5.21-5-8.83-5h-1.17" fill="none" stroke="#000" stroke-linecap="square" stroke-miterlimit="10" stroke-width="2"/><path d="m49 40c1.84-3.68 5.6-6 9.71-6h1.29" fill="none" stroke="#000" stroke-linecap="square" stroke-miterlimit="10" stroke-width="2"/></g></g><g id="line_Expand"><g><path d="m35 40h2v-1c0-9.37 7.63-17 17-17h1v-2h-1c-10.48 0-19 8.52-19 19z"/><path d="m25 37v-1c0-6.07-4.93-11-11-11h-1v2h1c4.96 0 9 4.04 9 9v1z"/><path d="m41 36c0 1.65 1.35 3 3 3s3-1.35 3-3-1.35-3-3-3-3 1.35-3 3zm4 0c0 .55-.45 1-1 1s-1-.45-1-1 .45-1 1-1 1 .45 1 1z"/><path d="m46 18c1.65 0 3-1.35 3-3s-1.35-3-3-3-3 1.35-3 3 1.35 3 3 3zm0-4c.55 0 1 .45 1 1s-.45 1-1 1-1-.45-1-1 .45-1 1-1z"/><path d="m51 28c0 1.65 1.35 3 3 3s3-1.35 3-3-1.35-3-3-3-3 1.35-3 3zm4 0c0 .55-.45 1-1 1s-1-.45-1-1 .45-1 1-1 1 .45 1 1z"/><path d="m14 34c0 1.65 1.35 3 3 3s3-1.35 3-3-1.35-3-3-3-3 1.35-3 3zm4 0c0 .55-.45 1-1 1s-1-.45-1-1 .45-1 1-1 1 .45 1 1z"/><path d="m14 43v20h36v-20zm2 18v-16h12v16zm14 0v-16h4v16zm18-16v16h-12v-16z"/><path d="m51.69 14.19 4.31-2.02 4.31 2.02-.59-4.72 3.25-3.47-4.67-.9-2.3-4.17-2.3 4.17-4.67.9 3.25 3.47zm3.31-7.31 1-1.81 1 1.81 2.03.39-1.41 1.51.26 2.05-1.88-.87-1.87.88.26-2.05-1.41-1.51z"/><path d="m33.97 22.89-1.97-3.57-1.97 3.57-4 .77 2.79 2.97-.51 4.04 3.69-1.73 3.69 1.73-.51-4.04 2.79-2.97zm-.72 4.43-1.25-.58-1.25.59.17-1.38-.95-1.01 1.36-.26.67-1.22.67 1.21 1.36.26-.95 1.01z"/><path d="m3.85 23.9 36.71-9.83-2.07-7.73-10.4 2.79c.69-.99.96-2.19.75-3.38s-.87-2.23-1.86-2.93c-.99-.69-2.19-.96-3.39-.75-1.19.21-2.23.87-2.93 1.86-.45.65-.73 1.41-.8 2.21l-.25 3.18-1.81-2.63c-.46-.65-1.08-1.18-1.8-1.51-2.27-1.06-4.97-.07-6.02 2.19-1.06 2.26-.07 4.96 2.19 6.02l-10.39 2.79zm18-17.59c.04-.44.19-.87.45-1.23.39-.55.97-.92 1.63-1.04.15-.03.3-.04.45-.04.51 0 1.02.16 1.45.46.55.39.92.97 1.04 1.63.12.67-.03 1.34-.42 1.89-.25.36-.6.65-1 .84l-3.93 1.79zm-10.06 1.91c.43-.92 1.35-1.46 2.3-1.46.36 0 .72.08 1.07.24.4.19.75.48 1 .84l2.45 3.56-4.3.42c-.44.04-.89-.04-1.29-.22-1.27-.61-1.82-2.12-1.23-3.38zm25.28.57 1.04 3.86-32.84 8.8-1.04-3.86z"/><path d="m14.86 39.49c-2.03-3.39-5.75-5.49-9.69-5.49h-2.17v2h2.17c3.25 0 6.3 1.73 7.97 4.51l.51.86 1.71-1.03z"/><path d="m48.11 39.55-.45.89 1.79.89.45-.89c1.68-3.36 5.06-5.45 8.81-5.45h2.29v-2h-2.29c-4.52.01-8.58 2.52-10.6 6.56z"/></g></g><g id="Solid" display="none"><g display="inline"><path d="m37 40h-2v-1c0-10.48 8.52-19 19-19h1v2h-1c-9.37 0-17 7.63-17 17z"/><path d="m25 37h-2v-1c0-4.96-4.04-9-9-9h-1v-2h1c6.07 0 11 4.93 11 11z"/><circle cx="44" cy="36" r="2"/><circle cx="46" cy="15" r="2"/><circle cx="54" cy="28" r="2"/><circle cx="17" cy="34" r="2"/><path d="m30 44h4v18h-4z"/><path d="m36 44h13v18h-13z"/><path d="m15 44h13v18h-13z"/><path d="m56 3 1.65 2.99 3.35.64-2.33 2.49.42 3.39-3.09-1.45-3.09 1.45.42-3.39-2.33-2.49 3.35-.64z"/><path d="m32 21.39 1.32 2.39 2.68.52-1.87 1.99.34 2.71-2.47-1.16-2.47 1.16.34-2.71-1.87-1.99 2.68-.52z"/><path d="m28.84 5.75c-.21-1.19-.87-2.23-1.86-2.93-.99-.69-2.19-.96-3.39-.75-1.19.21-2.23.87-2.93 1.86-.45.65-.73 1.41-.8 2.21l-.25 3.18-1.81-2.63c-.46-.65-1.08-1.18-1.8-1.51-2.27-1.06-4.97-.07-6.02 2.19-1.06 2.27-.07 4.97 2.19 6.02.6.28 1.25.42 1.91.42.14 0 .27-.01.41-.02l6.16-.6 5.64-2.57c.72-.34 1.34-.86 1.8-1.51.69-.97.96-2.17.75-3.36zm-14.53 6.06c-.44.04-.89-.04-1.29-.22-1.27-.59-1.82-2.1-1.23-3.37.43-.92 1.35-1.46 2.3-1.46.36 0 .72.08 1.07.24.4.19.75.48 1 .84l2.45 3.56zm12.14-3.82c-.25.36-.6.65-1 .84l-3.93 1.79.34-4.3c.04-.44.19-.87.45-1.23.39-.55.97-.92 1.63-1.04.14-.04.29-.05.44-.05.51 0 1.02.16 1.45.46.55.39.92.97 1.04 1.63.11.67-.03 1.34-.42 1.9z"/><path d="m13.66 41.37-.51-.86c-1.68-2.78-4.73-4.51-7.98-4.51h-2.17v-2h2.17c3.95 0 7.66 2.1 9.69 5.49l.51.86z"/><path d="m49.45 41.34-1.79-.89.45-.89c2.02-4.04 6.08-6.55 10.6-6.55h2.29v2h-2.29c-3.76 0-7.13 2.09-8.81 5.45z"/><path d="m37.77 7.57-7.65 2.05c-.12.23-.25.45-.4.66-.66.94-1.56 1.69-2.6 2.17l-5.95 2.71-6.49.63c-.21.02-.41.03-.6.03-.95 0-1.9-.21-2.76-.61-.24-.11-.46-.24-.68-.37l-7.64 2.04 1.55 5.8 34.77-9.32z"/></g></g></svg>