<?xml version="1.0" encoding="UTF-8" standalone="no"?><!DOCTYPE svg PUBLIC "-//W3C//DTD SVG 1.1//EN" "http://www.w3.org/Graphics/SVG/1.1/DTD/svg11.dtd"><svg width="100%" height="100%" viewBox="0 0 1713 469" version="1.1" xmlns="http://www.w3.org/2000/svg" xmlns:xlink="http://www.w3.org/1999/xlink" xml:space="preserve" xmlns:serif="http://www.serif.com/" style="fill-rule:evenodd;clip-rule:evenodd;stroke-linejoin:round;stroke-miterlimit:2;"><rect id="main" x="-1810.43" y="-531.946" width="5333.33" height="3200" style="fill:none;"/><g id="Layer-1" serif:id="Layer 1"></g><g id="tablet"></g><g id="phone"></g><g id="desktop"><g transform="matrix(645.973,0,0,645.973,-25.8389,460.579)"><path d="M0.385,0.013c-0.049,0 -0.094,-0.009 -0.136,-0.028c-0.042,-0.019 -0.078,-0.045 -0.109,-0.079c-0.032,-0.033 -0.056,-0.072 -0.074,-0.115c-0.017,-0.044 -0.026,-0.092 -0.026,-0.142c-0,-0.051 0.009,-0.099 0.027,-0.143c0.019,-0.044 0.044,-0.082 0.077,-0.115c0.032,-0.033 0.069,-0.058 0.11,-0.076c0.042,-0.018 0.086,-0.027 0.132,-0.027c0.053,-0 0.103,0.012 0.15,0.037c0.048,0.024 0.089,0.06 0.123,0.107l-0.075,0.04c-0.025,-0.033 -0.056,-0.058 -0.091,-0.075c-0.035,-0.017 -0.071,-0.026 -0.108,-0.026c-0.035,0 -0.069,0.007 -0.101,0.021c-0.031,0.015 -0.059,0.035 -0.083,0.061c-0.024,0.025 -0.043,0.055 -0.057,0.088c-0.013,0.034 -0.02,0.071 -0.02,0.11c-0,0.038 0.007,0.074 0.02,0.108c0.014,0.034 0.033,0.063 0.056,0.089c0.024,0.025 0.052,0.045 0.084,0.059c0.032,0.015 0.065,0.022 0.101,0.022c0.029,0 0.056,-0.005 0.082,-0.014c0.026,-0.01 0.05,-0.024 0.071,-0.041c0.022,-0.018 0.041,-0.039 0.056,-0.063c0.016,-0.024 0.028,-0.05 0.036,-0.079l-0.173,0l0,-0.075l0.271,0c-0,0.049 -0.01,0.095 -0.028,0.138c-0.018,0.043 -0.043,0.081 -0.075,0.114c-0.031,0.032 -0.067,0.058 -0.109,0.077c-0.041,0.018 -0.085,0.027 -0.132,0.027Z" style="fill:#f5c335;fill-rule:nonzero;"/></g><g transform="matrix(645.973,0,0,645.973,442.168,460.579)"><path d="M0.15,0.013c-0.024,0 -0.047,-0.004 -0.069,-0.012c-0.022,-0.008 -0.043,-0.019 -0.061,-0.035l0.054,-0.065c0.009,0.008 0.02,0.015 0.033,0.021c0.013,0.004 0.027,0.007 0.043,0.007c0.021,-0 0.042,-0.006 0.059,-0.018c0.019,-0.011 0.033,-0.027 0.044,-0.046c0.011,-0.018 0.016,-0.039 0.016,-0.061l0,-0.504l0.084,-0l-0,0.504c-0,0.038 -0.009,0.072 -0.028,0.104c-0.018,0.031 -0.042,0.057 -0.073,0.076c-0.031,0.019 -0.065,0.029 -0.103,0.029Z" style="fill:#f5c335;fill-rule:nonzero;"/></g><g transform="matrix(645.973,0,0,645.973,708.955,460.579)"><rect x="0.075" y="-0.7" width="0.084" height="0.7" style="fill:#f5c335;fill-rule:nonzero;"/></g><g transform="matrix(645.973,0,0,645.973,860.113,460.579)"><path d="M0.59,-0.7l-0,0.084l-0.233,0l-0.001,0.616l-0.083,0l-0,-0.616l-0.233,0l0,-0.084l0.55,0Z" style="fill:#f5c335;fill-rule:nonzero;"/></g><g transform="matrix(645.973,0,0,645.973,1240.91,460.579)"><path d="M0.385,0.013c-0.047,0 -0.092,-0.009 -0.134,-0.028c-0.041,-0.019 -0.078,-0.045 -0.109,-0.079c-0.032,-0.033 -0.057,-0.071 -0.075,-0.115c-0.018,-0.044 -0.027,-0.091 -0.027,-0.141c-0,-0.05 0.009,-0.097 0.027,-0.14c0.018,-0.044 0.043,-0.083 0.075,-0.116c0.031,-0.034 0.068,-0.06 0.109,-0.078c0.042,-0.019 0.087,-0.029 0.134,-0.029c0.048,0 0.092,0.01 0.134,0.029c0.042,0.018 0.078,0.044 0.11,0.078c0.032,0.033 0.056,0.072 0.074,0.116c0.018,0.043 0.027,0.09 0.027,0.14c0,0.05 -0.009,0.097 -0.027,0.141c-0.018,0.044 -0.042,0.082 -0.074,0.116c-0.032,0.033 -0.068,0.059 -0.11,0.078c-0.042,0.019 -0.086,0.028 -0.134,0.028Zm0,-0.084c0.036,0 0.07,-0.007 0.101,-0.022c0.032,-0.015 0.06,-0.035 0.084,-0.06c0.024,-0.026 0.042,-0.056 0.056,-0.089c0.013,-0.034 0.02,-0.07 0.02,-0.108c0,-0.038 -0.007,-0.074 -0.02,-0.107c-0.014,-0.034 -0.033,-0.064 -0.057,-0.089c-0.024,-0.026 -0.051,-0.046 -0.083,-0.061c-0.031,-0.015 -0.065,-0.022 -0.101,-0.022c-0.036,0 -0.07,0.007 -0.102,0.022c-0.031,0.015 -0.059,0.035 -0.083,0.061c-0.024,0.026 -0.042,0.055 -0.056,0.089c-0.013,0.033 -0.02,0.069 -0.02,0.107c0,0.038 0.007,0.074 0.021,0.108c0.013,0.034 0.032,0.063 0.056,0.089c0.024,0.026 0.051,0.046 0.083,0.061c0.031,0.014 0.065,0.021 0.101,0.021Z" style="fill:#f5c335;fill-rule:nonzero;"/></g><g transform="matrix(645.973,0,0,645.973,1738.31,460.579)"></g></g></svg>