<svg id="Layer_1" enable-background="new 0 0 512 512" viewBox="0 0 512 512" xmlns="http://www.w3.org/2000/svg"><path d="m416.954 262.703c7.206-25.721 25.128-47.927 49.049-60.318 2.654-1.375 4.32-4.114 4.32-7.104v-22.375c0-.001 0-.001 0-.002s0-.001 0-.002v-115.921c0-2.969-1.644-5.693-4.271-7.078-2.626-1.384-5.803-1.2-8.252.479l-20.055 13.746-20.058-13.746c-2.726-1.868-6.32-1.868-9.045 0l-20.055 13.746-20.058-13.746c-2.726-1.868-6.32-1.868-9.045 0l-20.055 13.746-20.058-13.746c-2.449-1.678-5.626-1.861-8.252-.479-2.626 1.384-4.271 4.109-4.271 7.078v78.06c-7.48-11.999-16.326-22.844-26.333-32.147-10.548-9.807-15.033-22.524-12.969-36.778l7.089-48.971c.333-2.298-.35-4.626-1.869-6.382s-3.725-2.763-6.047-2.763h-147.765c-2.322 0-4.529 1.009-6.048 2.764s-2.202 4.084-1.869 6.382l7.09 48.971c2.064 14.253-2.421 26.971-12.97 36.777-11.372 10.572-21.207 23.065-29.312 37.127-11.074 4.106-20.981 11.586-29.76 32.07-.959 2.238-3.917 3.036-6.364 3.036h-23.721c-4.418 0-8 3.582-8 8v130.511c0 4.418 3.582 8 8 8h23.721c1.448 0 2.759.324 3.895.962 8.398 4.722 16.798 6.922 26.435 6.922h8.545c5.931 9.577 12.661 18.316 20.132 26.144h-18.907c-15.439 0-28 12.561-28 28v9.186c0 4.418 3.582 8 8 8h199.087c4.43 26.741 17.484 50.605 36.206 68.627-34.782 18.371-61.469 11.955-89.582 5.172-33.363-8.05-67.863-16.373-115.038 14.666-3.691 2.429-4.714 7.39-2.286 11.081 1.537 2.336 4.088 3.604 6.69 3.604 1.509 0 3.035-.426 4.39-1.318 41.375-27.224 71.062-20.061 102.491-12.479 31.321 7.556 63.67 15.362 106.48-9.717 20.343 14.78 45.35 23.512 72.362 23.512 68.031 0 123.379-55.348 123.379-123.379 0-55.392-36.692-102.371-87.046-117.918zm42.604 129.624c8.635 2.266 17.694 4.117 27.054 5.52-1.087 6.713-2.794 13.222-5.069 19.46-11.264-1.773-22.127-4.167-32.477-7.133 3.724-5.778 7.221-11.727 10.492-17.847zm7.258-14.658c2.778-6.087 5.342-12.332 7.704-18.725 3.818.881 7.734 1.678 11.739 2.376 1.141 6.263 1.741 12.713 1.741 19.3 0 .421-.011.839-.016 1.259-7.289-1.12-14.365-2.533-21.168-4.21zm13.648-36.568c.398 1.002.78 2.013 1.148 3.03-.652-.138-1.291-.286-1.936-.43.266-.864.53-1.73.788-2.6zm-11.036-20.776c-16.95 71.926-57.94 126.552-121.9 162.45-8.086-2.626-15.756-6.183-22.879-10.551 70.884-35.058 113.972-92.449 128.309-170.891 6.198 5.66 11.731 12.034 16.47 18.992zm-55.567 132.971c11.075 4.109 22.662 7.612 34.642 10.46-7.036 5.755-14.812 10.636-23.163 14.477-9.628-2.899-19.043-6.239-28.143-9.984 5.812-4.782 11.366-9.767 16.664-14.953zm-118.389-7.334c40.211-18.649 67.098-38.834 86.431-64.723 19.094-25.569 30.895-56.887 37.787-100.639 6.648 2.606 12.976 5.856 18.906 9.674-12.397 81.248-54.504 137.325-128.563 171.195-5.347-4.675-10.226-9.871-14.561-15.507zm158.851-281.058h-131.474v-17.265h131.474zm-83.543 204.289c-22.592-19.08-41.377-43.706-55.954-73.372 5.291-4.114 10.972-7.749 16.983-10.83 13.017 27.065 29.659 49.536 49.596 66.96-3.206 6.062-6.735 11.797-10.625 17.242zm17.68-32.377c-16.761-15.448-30.553-34.583-41.889-58.039 6.427-2.154 13.124-3.716 20.025-4.62 8.305 16.313 17.882 30.043 29.095 41.715-2.134 7.372-4.531 14.342-7.231 20.944zm15.771-60.954c-1.128 7.405-2.404 14.476-3.849 21.234-5.864-7.102-11.209-14.993-16.113-23.787 6.834.23 13.507 1.099 19.962 2.553zm-73.526-8.062c2.148-11.557 3.239-23.388 3.239-35.356 0-4.765-.185-9.527-.531-14.266 11.846 11.197 20.729 25.233 25.744 40.935-9.942 1.752-19.476 4.701-28.452 8.687zm-28.167 39.188c15.332 29.978 34.866 55.045 58.238 74.701-4.4 4.921-9.176 9.596-14.348 14.072-22.563-19.29-41.79-43.252-57.274-71.332 3.865-6.268 8.355-12.111 13.384-17.441zm-21.961 34.624c14.845 24.77 32.635 46.291 53.073 64.22-5.421 3.903-11.212 7.659-17.398 11.3-15.644-14.307-29.846-30.695-42.302-48.81 1.066-9.314 3.325-18.27 6.627-26.71zm20.909 83.625c-4.756 2.439-9.72 4.833-14.89 7.196-6.201-11.209-10.454-23.637-12.304-36.827 8.473 10.579 17.561 20.48 27.194 29.631zm99.881-166.243c-6.748-1.147-13.677-1.754-20.746-1.754-1.768 0-3.526.046-5.276.12-8.129-28.232-26.875-52.132-52.496-66.827v-9.63h131.475v9.628c-26.227 15.028-45.107 39.493-52.957 68.463zm-69.939-180.952v29.699c0 4.418 3.582 8 8 8s8-3.582 8-8v-29.697l8.579-5.88v18.621c0 4.418 3.582 8 8 8s8-3.582 8-8v-18.622l8.579 5.88v29.698c0 4.418 3.582 8 8 8s8-3.582 8-8v-29.697l8.579-5.88v18.621c0 4.418 3.582 8 8 8s8-3.582 8-8v-18.622l8.579 5.88v29.698c0 4.418 3.582 8 8 8s8-3.582 8-8v-29.697l8.579-5.88v59.475h-131.474v-59.476zm-73.951-54.042-1.847 12.761h-125.587l-1.848-12.761zm-206.02 284.653c-3.509-1.973-7.567-3.016-11.736-3.016h-15.721v-114.51h15.721c9.63 0 17.704-4.879 21.07-12.733 8.977-20.945 17.161-22.95 32.02-26.588.8-.196 1.611-.395 2.435-.599 19.665-2.646 31.84-8.048 49.929-31.792 4.489 5.21 6.443 10.521 5.949 16.092-1.214 13.688-17.422 28.397-32.947 36.904-3.205 1.755-4.812 5.459-3.906 9s4.096 6.016 7.75 6.016h108.043c6.184 0 11.214 5.031 11.214 11.215 0 6.183-5.03 11.213-11.214 11.213h-98.702c-4.418 0-8 3.582-8 8s3.582 8 8 8h98.702 16.721c6.184 0 11.214 5.03 11.214 11.214s-5.031 11.214-11.214 11.214h-12.444-102.978c-4.418 0-8 3.582-8 8s3.582 8 8 8h102.979c4.96 0 8.995 4.035 8.995 8.995s-4.035 8.996-8.995 8.996h-23.583-79.396c-4.418 0-8 3.582-8 8s3.582 8 8 8h79.396c4.204 0 7.624 3.42 7.624 7.624s-3.42 7.624-7.624 7.624h-140.709c-6.871 0-12.605-1.501-18.593-4.869zm46.357 20.869 112.944-.001c13.026 0 23.624-10.598 23.624-23.624 0-2.667-.444-5.231-1.262-7.624h1.221c13.782 0 24.995-11.213 24.995-24.996 0-3.911-.903-7.614-2.511-10.914 10.053-4.003 17.175-13.832 17.175-25.294 0-12.384-8.314-22.862-19.654-26.146 1.875-3.692 2.932-7.865 2.932-12.282 0-15.006-12.208-27.215-27.214-27.215h-83.048c10.592-9.664 18.901-21.61 20.045-34.506.805-9.074-1.658-22.649-17.964-35.785-1.721-1.386-3.94-1.999-6.128-1.693-2.189.307-4.153 1.505-5.428 3.312-16.673 23.635-25.52 29.221-39.075 31.754 5.301-7.267 11.17-13.932 17.583-19.895 14.359-13.349 20.72-31.386 17.911-50.789l-1.602-11.063h120.954l-1.602 11.063c-2.809 19.403 3.552 37.44 17.91 50.789 16.065 14.935 28.869 34.331 37.227 56.321v1.969.002s0 .001 0 .002v22.375c0 2.989 1.667 5.729 4.32 7.104 1.58.818 3.131 1.677 4.653 2.573 1.407 9.019 2.122 18.247 2.122 27.487 0 15.639-2.039 31.004-6.014 45.735-26.352 17.727-45.524 45.342-52.152 77.486h-137.555c-9.106-7.447-17.275-16.201-24.407-26.145zm-29.993 55.33v-1.186c0-6.617 5.383-12 12-12h177.747c-.213 2.958-.327 5.943-.327 8.955 0 1.417.033 2.826.08 4.231zm302.87 102.685c4.089-2.625 8.078-5.33 11.968-8.115 5.483 2.452 11.088 4.762 16.796 6.923-6.117 1.087-12.41 1.655-18.834 1.655-3.349 0-6.659-.162-9.93-.463zm91.495-37.16c-12.529-2.537-24.657-5.799-36.224-9.751 4.751-5.346 9.253-10.884 13.516-16.606 11.186 3.46 22.975 6.248 35.199 8.354-3.552 6.432-7.744 12.461-12.491 18.003z"/></svg>