<svg height="510pt" viewBox="0 -59 510.42019 510" width="510pt" xmlns="http://www.w3.org/2000/svg"><path d="m114.695312 145.929688c-5.195312 7.027343-6.300781 16.273437-2.90625 24.328124 6.023438 16.300782 14.445313 31.609376 24.984376 45.425782 5.789062 7.902344 14.597656 13.050781 24.328124 14.214844 1.160157 9.726562 6.304688 18.539062 14.207032 24.328124 13.816406 10.539063 29.125 18.960938 45.421875 24.988282 3.28125 1.210937 6.746093 1.84375 10.242187 1.867187 5.117188.09375 10.105469-1.59375 14.113282-4.777343 6.308593 6.90625 15.117187 11.007812 24.464843 11.390624h.949219c14.464844-.308593 28.640625-4.113281 41.316406-11.09375 5.480469-3.105468 9.140625-8.640624 9.855469-14.898437.179687-1.488281.226563-2.992187.136719-4.488281.386718 0 .777344.128906 1.152344.128906 1.101562 0 2.203124-.074219 3.292968-.222656 6.257813-.707032 11.796875-4.367188 14.890625-9.847656 6.976563-12.679688 10.78125-26.855469 11.09375-41.320313-.09375-9.6875-4.222656-18.902344-11.390625-25.417969 5.21875-7.019531 6.328125-16.277344 2.917969-24.332031-6.027344-16.296875-14.449219-31.609375-24.984375-45.429687-5.792969-7.898438-14.601562-13.042969-24.328125-14.199219-1.15625-9.726563-6.300781-18.535157-14.199219-24.320313-13.816406-10.539062-29.125-18.960937-45.425781-24.984375-8.070313-3.417969-17.347656-2.296875-24.371094 2.941407-6.527343-7.136719-15.710937-11.265626-25.386719-11.417969-14.460937.316406-28.632812 4.121093-41.308593 11.09375-5.480469 3.097656-9.144531 8.636719-9.847657 14.890625-.183593 1.476562-.234374 2.964844-.152343 4.449218-1.476563-.085937-2.960938-.039062-4.429688.132813-6.257812.714844-11.792969 4.378906-14.898437 9.859375-6.980469 12.671875-10.785156 26.851562-11.09375 41.316406.082031 9.679688 4.199218 18.882813 11.355468 25.394532zm104.699219 6.828124c.132813-.042968.28125-.050781.417969-.085937.40625-.089844.820312-.140625 1.234375-.152344h.28125c.621094.007813 1.234375.070313 1.84375.179688 7.582031 1.796875 13.480469 7.757812 15.199219 15.359375.457031 1.695312.144531 3.503906-.855469 4.949218-.664063.578126-1.503906.917969-2.386719.953126-.070312.019531-.140625.035156-.214844.042968h-.375c-.351562 0-.714843 0-1.039062 0h-.085938c-.402343 0-.769531-.09375-1.058593-.144531-7.574219-1.8125-13.464844-7.765625-15.199219-15.359375-.457031-1.695312-.144531-3.503906.855469-4.949219.390625-.371093.863281-.640625 1.382812-.792969zm-68.992187 52.648438c-9.519532-12.453125-17.125-26.257812-22.574219-40.957031-1.257813-2.414063-1.230469-5.292969.070313-7.679688.882812-.863281 2.097656-1.296875 3.328124-1.195312.589844.003906 1.183594.054687 1.765626.152343l68.984374 11.8125c.152344.390626.417969.75.578126 1.140626.613281 1.4375 1.320312 2.832031 2.117187 4.175781.179687.304687.28125.636719.480469.945312l-38.171875 38.167969c-1.175781.875-2.644531 1.257812-4.09375 1.066406-5.03125-.722656-9.546875-3.480468-12.484375-7.628906zm83.882812 57.695312c-2.390625 1.300782-5.269531 1.328126-7.683594.070313-14.695312-5.449219-28.5-13.050781-40.957031-22.5625-4.136719-2.960937-6.878906-7.484375-7.585937-12.519531-.199219-1.453125.183594-2.925782 1.066406-4.097656l38.167969-38.167969c.28125.179687.589843.273437.855469.445312 1.4375.867188 2.941406 1.628907 4.496093 2.277344.296875.128906.578125.332031.851563.453125l11.8125 68.980469c.511718 1.773437.128906 3.683593-1.023438 5.121093zm70.457032-3.703124c-.238282 1.707031-.996094 2.160156-1.320313 2.347656-10.304687 5.617187-21.8125 8.660156-33.546875 8.875-8.65625-.761719-15.828125-7.035156-17.730469-15.515625l-11.09375-64.980469c.390625-.121094.785157-.246094 1.167969-.390625l56.824219 56.890625c3.664062 3.238281 5.746093 7.90625 5.699219 12.800781zm21.523437-20.480469c-.179687.324219-.617187 1.085937-2.347656 1.324219-4.898438.070312-9.578125-2.011719-12.800781-5.703126l-56.847657-56.855468c.136719-.382813.261719-.769532.382813-1.160156l64.980468 11.09375c8.460938 1.9375 14.722657 9.089843 15.523438 17.730468-.21875 11.738282-3.269531 23.25-8.890625 33.554688zm-21.148437-117.84375c9.523437 12.453125 17.128906 26.257812 22.570312 40.960937 1.269531 2.40625 1.246094 5.292969-.066406 7.679688-1.4375 1.15625-3.347656 1.539062-5.121094 1.03125l-68.984375-11.75c-.144531-.382813-.40625-.742188-.570313-1.128906-.609374-1.449219-1.320312-2.851563-2.125-4.207032-.1875-.304687-.28125-.628906-.476562-.9375l38.167969-38.167968c1.160156-.90625 2.644531-1.292969 4.097656-1.066407 5.035156.703125 9.558594 3.445313 12.507813 7.585938zm-83.882813-57.695313c2.386719-1.3125 5.273437-1.335937 7.679687-.066406 14.703126 5.441406 28.507813 13.046875 40.960938 22.570312 4.140625 2.949219 6.882812 7.472657 7.585938 12.507813.203124 1.453125-.179688 2.925781-1.066407 4.097656l-38.152343 38.167969c-.28125-.179688-.589844-.273438-.851563-.441406-1.449219-.875-2.960937-1.644532-4.523437-2.296875-.300782-.121094-.570313-.324219-.855469-.433594l-11.800781-68.992187c-.507813-1.769532-.125-3.675782 1.023437-5.113282zm-70.457031 3.703125c.238281-1.707031.996094-2.167969 1.320312-2.347656 10.300782-5.613281 21.804688-8.664063 33.539063-8.882813h.363281c8.492188.992188 15.445312 7.207032 17.375 15.53125l11.09375 64.980469c-.390625.121094-.777344.25-1.160156.386719l-56.859375-56.851562c-3.664063-3.242188-5.734375-7.921876-5.671875-12.816407zm-21.523438 20.480469c.1875-.324219.617188-1.082031 2.347656-1.324219.339844-.039062.683594-.058593 1.023438-.058593 4.515625.363281 8.726562 2.421874 11.785156 5.761718l56.859375 56.855469c-.148437.386719-.273437.777344-.394531 1.171875l-64.988281-11.09375c-8.453125-1.949219-14.699219-9.105469-15.488281-17.742188.207031-11.734374 3.246093-23.246093 8.855468-33.554687zm0 0"/><path d="m487.714844 216.324219c-4.433594-1.539063-7.9375-4.984375-9.550782-9.386719-16.210937-47.148438-60.183593-82.253906-120.941406-96.785156-9.808594-15.269532-21.238281-29.4375-34.082031-42.257813-72.953125-73.003906-175.0625-89.523437-227.660156-36.941406-.179688.179687-.308594.382813-.488281.554687-.175782.171876-.144532.085938-.210938.144532-86.9375 86.972656-116.855469 189.96875-78.113281 268.917968 2.882812 6.285157 2.832031 13.523438-.148438 19.765626-7.488281 15.640624-4.613281 34.277343 7.246094 46.933593 12.65625 11.855469 31.292969 14.730469 46.933594 7.242188 6.238281-2.976563 13.480469-3.027344 19.761719-.144531 22.910156 11.125 48.074218 16.816406 73.542968 16.632812 19.089844-.136719 38.066406-2.914062 56.394532-8.253906 21.886718 5.882812 44.40625 9.09375 67.066406 9.566406.367187.105469.746094.179688 1.125.230469h8.53125c.339844-.042969.671875-.113281 1-.203125 89.949218-2.558594 158.71875-42.199219 180.054687-104.355469 1.601563-4.402344 5.097657-7.847656 9.523438-9.386719 13.535156-4.339844 22.722656-16.929687 22.722656-31.144531 0-14.21875-9.1875-26.808594-22.722656-31.148437zm-311.484375-199.296875c43.433593 0 93.910156 21.964844 134.828125 62.898437 66.285156 66.285157 82.839844 157.59375 36.898437 203.527344-45.945312 45.9375-137.226562 29.390625-203.511719-36.898437-66.289062-66.285157-82.84375-157.59375-36.898437-203.527344 18.464844-17.550782 43.222656-26.921875 68.683594-26zm-78.292969 341.980468c-10.757812-5.128906-23.242188-5.199218-34.054688-.1875-9.21875 4.636719-20.328124 3.191407-28.050781-3.652343-6.847656-7.71875-8.296875-18.835938-3.652343-28.050781 5.003906-10.816407 4.933593-23.300782-.1875-34.0625-28.714844-58.503907-15.300782-132.335938 34.246093-201.660157-7.757812 52.335938 15.664063 116.761719 66.140625 167.253907 44.152344 44.152343 98.984375 67.644531 147.078125 67.644531 6.769531-.019531 13.527344-.535157 20.21875-1.546875-69.335937 49.554687-143.191406 63.003906-201.738281 34.261718zm383.546875-96.265624c-9.085937 3.371093-16.214844 10.589843-19.464844 19.722656-19.316406 56.320312-84.164062 91.921875-169.105469 93.011718-14.003906-.179687-27.980468-1.378906-41.8125-3.589843 40.5625-18.136719 77.3125-43.8125 108.289063-75.667969.050781-.050781.066406-.125.121094-.179688.1875-.1875.390625-.332031.578125-.519531 38.527344-38.535156 39.800781-103.644531 9.113281-164.394531 46.660156 14.984375 80.035156 43.929688 92.835937 81.246094 3.226563 9.179687 10.367188 16.449218 19.488282 19.839844 6.996094 1.765624 11.894531 8.054687 11.894531 15.265624 0 7.214844-4.898437 13.503907-11.894531 15.265626zm0 0"/><path d="m104.984375 301.613281c-5.289063.726563-10.640625-.839843-14.699219-4.308593-1.371094-2.515626-1.679687-5.476563-.855468-8.21875 1.351562-4.441407-1.09375-9.144532-5.503907-10.589844-4.410156-1.449219-9.167969.894531-10.710937 5.273437-2.539063 7.890625-1.371094 16.511719 3.175781 23.441407 7.0625 8.296874 17.757813 12.582031 28.59375 11.453124 4.714844 0 8.535156-3.820312 8.535156-8.535156 0-4.710937-3.820312-8.53125-8.535156-8.53125zm0 0"/><path d="m162.59375 314.558594c-5.285156.738281-10.632812-.8125-14.703125-4.265625-1.367187-2.515625-1.675781-5.476563-.851563-8.21875 1.3125-4.429688-1.136718-9.101563-5.527343-10.539063s-9.128907.882813-10.6875 5.230469c-2.546875 7.894531-1.382813 16.515625 3.167969 23.449219 7.058593 8.296875 17.757812 12.582031 28.59375 11.453125 4.714843 0 8.535156-3.820313 8.535156-8.535157 0-4.710937-3.820313-8.53125-8.535156-8.53125zm0 0"/><path d="m99.191406 251.148438c0-4.714844-3.820312-8.535157-8.53125-8.535157-5.296875.722657-10.644531-.84375-14.710937-4.308593-1.363281-2.519532-1.671875-5.480469-.855469-8.226563 1.285156-4.421875-1.167969-9.0625-5.542969-10.492187-4.375-1.429688-9.097656.867187-10.671875 5.191406-2.542968 7.894531-1.375 16.515625 3.175782 23.449218 7.0625 8.300782 17.757812 12.585938 28.59375 11.453126 2.265624.003906 4.4375-.894532 6.042968-2.496094 1.601563-1.601563 2.5-3.773438 2.5-6.035156zm0 0"/><path d="m420.402344 290.996094c-2.023438-1.011719-4.367188-1.175782-6.515625-.460938-2.148438.71875-3.921875 2.257813-4.933594 4.285156-5.660156 11.324219-23.042969 19.234376-29.210937 21.332032-4.019532 1.292968-6.492188 5.332031-5.8125 9.496094.679687 4.167968 4.304687 7.214843 8.527343 7.164062.914063-.003906 1.824219-.152344 2.695313-.4375 1.1875-.402344 29.074218-9.882812 39.074218-29.867188 1.03125-2.03125 1.207032-4.390624.488282-6.550781-.714844-2.164062-2.269532-3.949219-4.3125-4.960937zm0 0"/></svg>