<svg id="Layer_1" viewBox="0 0 128 128" xmlns="http://www.w3.org/2000/svg" data-name="Layer 1"><path d="m104.77106 29.14056-1.561-8.86963a1.99988 1.99988 0 0 0 -1.64844-1.62744l-3.44092-.56006-.979-5.874a1.99816 1.99816 0 0 0 -2.2832-1.647l-4.32568.67969-7.18999-4.20605a1.99982 1.99982 0 0 0 -2.49072.38184l-5.31982 5.86133-5.10889.10889.28125-2.65918a1.99974 1.99974 0 0 0 -1.603-2.17285l-7.88865-1.55079-1.8418-4.376a1.99968 1.99968 0 0 0 -1.59766-1.209l-11.36186-1.40523a2.00163 2.00163 0 0 0 -2.1543 1.3877l-1.64795 5.269a2.00024 2.00024 0 0 0 .4165 1.92871l3.748 4.19922 1.24023 4.95752-4.14252 3.82767-1.481-2.85449a1.99983 1.99983 0 0 0 -1.66162-1.07568l-7.71924-.439a1.98731 1.98731 0 0 0 -1.75781.85742l-3.46919 5.00585a2.00045 2.00045 0 0 0 -.01416 2.25732l3.98438 5.9082-5.84864 14.80181-8.21973 1.313a2.00037 2.00037 0 0 0 -1.55713 2.67822l2.15479 5.73828-2.17429 6.34667a2.00082 2.00082 0 0 0 -.02637 1.21387l2.53418 8.59082-1.81592 1.3623a2.001 2.001 0 0 0 -.7998 1.6001v3.60059a1.99965 1.99965 0 0 0 .69922 1.519l3.56982 3.05762-1.78223 2.6499a2.00067 2.00067 0 0 0 .002 2.23535l4.68359 6.9375a1.99973 1.99973 0 0 0 .92969.74365l11.19082 4.37455-5.18213 6.57568a2 2 0 0 0 -.4292 1.23779v9.66016a2.0001 2.0001 0 0 0 2 2h14.39114l3.96289 3.16357a1.99954 1.99954 0 0 0 1.13721.43408l3.91113.21631 3.39063 3.998a2.0001 2.0001 0 0 0 1.52539.70654c.03955 0 .0791-.001.11865-.00342a2.00009 2.00009 0 0 0 1.54932-.89307l2.48584-3.75781h2.27881l5.28711 2.05908a1.9945 1.9945 0 0 0 1.36523.03125l10.53027-3.55371 6.47266 4.21338a2.0007 2.0007 0 0 0 3.07568-1.4248l.86768-6.8501a1.99953 1.99953 0 0 0 -.30371-1.33545l-2.939-4.55859 8.50439-4.9209a1.99815 1.99815 0 0 0 .98291-1.48193l.69385-5.53271a2.00018 2.00018 0 0 0 -.69727-1.77979l-9.0127-7.57568-5.86035-7.93994-1.98389-5.05469 17.79446-11.05268 3.47754 3.91992a2.00021 2.00021 0 0 0 3.32764-.52344l3.81642-8.6938a2.00029 2.00029 0 0 0 -.33154-2.12646l-3.76562-4.271.52783-5.72705a1.99953 1.99953 0 0 0 -.14307-.94678l-1.79639-4.3501.54639-4.665a1.99955 1.99955 0 0 0 -.69873-1.76318l-4.53467-3.81543 2.61768-2.76318a2.00127 2.00127 0 0 0 .51758-1.72226zm-2 10.668-.48145 4.11133a2.00185 2.00185 0 0 0 .1377.99609l1.80664 4.37451-.562 6.09521a2.00112 2.00112 0 0 0 .4917 1.50635l3.4917 3.96045-2.04787 4.6655-2.52441-2.84521a1.99931 1.99931 0 0 0 -2.55127-.37158l-20.6416 12.82129a1.99957 1.99957 0 0 0 -.80664 2.4292l2.68848 6.8501a2.00649 2.00649 0 0 0 .25244.457l6.15771 8.34277a2.00753 2.00753 0 0 0 .32227.34326l8.36133 7.02832-.43506 3.46777-9.46191 5.47461a1.99917 1.99917 0 0 0 -.6792 2.81494l3.68164 5.71045-.375 2.96143-4.61084-3.00146a1.99584 1.99584 0 0 0 -1.731-.21875l-10.76022 3.63137-4.96045-1.93164a2.00175 2.00175 0 0 0 -.72559-.13623h-3.72949a1.99994 1.99994 0 0 0 -1.668.89648l-1.60889 2.43213-2.22314-2.62207a1.999 1.999 0 0 0 -1.415-.70361l-4.13184-.22852-4.01123-3.20166a1.99936 1.99936 0 0 0 -1.24756-.437h-13.09131v-6.9668l6.42285-8.14941a1.99965 1.99965 0 0 0 -.84277-3.10059l-13.123-5.12988-3.58057-5.3042 2.02344-3.00879a1.99991 1.99991 0 0 0 -.35889-2.63525l-4.22266-3.6167v-1.68018l2.12744-1.5957a2.00066 2.00066 0 0 0 .71826-2.166l-2.74707-9.312 2.2002-6.42285a2 2 0 0 0 -.01953-1.35107l-1.5464-4.11869 6.92773-1.10693a2 2 0 0 0 1.54443-1.24023l6.65476-16.84132a1.99866 1.99866 0 0 0 -.20166-1.853l-3.80859-5.64795 2.05176-2.96094 5.46338.31055 2.16357 4.17041a1.99974 1.99974 0 0 0 3.13281.54785l6.93848-6.41113a2.0001 2.0001 0 0 0 .583-1.9541l-1.64844-6.58594a1.99345 1.99345 0 0 0 -.44775-.84619l-3.3208-3.7207.811-2.59375 8.55717 1.05809 1.80566 4.29a2.00075 2.00075 0 0 0 1.45749 1.18655l7.1377 1.40332-.32764 3.09766a1.9983 1.9983 0 0 0 .5166 1.564 1.96784 1.96784 0 0 0 1.51465.646l8.23926-.17529a1.9997 1.9997 0 0 0 1.43848-.65527l4.80762-5.29736 6.40533 3.74702a1.98631 1.98631 0 0 0 1.32031.24951l3.07275-.48291.88867 5.33447a1.9998 1.9998 0 0 0 1.65137 1.64551l3.45459.562 1.14063 6.47949-3.38432 3.5723a2.00065 2.00065 0 0 0 .16455 2.90576z"/></svg>