<svg height="512" viewBox="0 0 64 64" width="512" xmlns="http://www.w3.org/2000/svg"><g id="_18-Muscle" data-name="18-Muscle"><path d="m42.058 42.334c-.025-.069-2.519-6.915-8.288-8.925-3.555-1.239-7.671-.416-12.24 2.439l-1.06-1.7c5.115-3.2 9.816-4.079 13.971-2.627 6.68 2.336 9.39 9.825 9.5 10.142z"/><path d="m63 64c-11.2 0-17.287-2.182-18.969-2.891-1.317.599-5.289 1.891-15.031 1.891-11.375 0-23.33-8.511-25.335-10h-2.665a1 1 0 0 1 -1-1v-3a1.034 1.034 0 0 1 .031-.248l10-39a1 1 0 0 1 .5-.635l17-9a1 1 0 0 1 1.257.27l7 9a1 1 0 0 1 -.125 1.362l-9 8a1.011 1.011 0 0 1 -.792.244 1 1 0 0 1 -.7-.437l-1.154-1.732a8.134 8.134 0 0 1 -3.868 1.129l2.841 19.905a1 1 0 0 1 -.543 1.037l-4 2-.894-1.79 3.355-1.677-2.9-20.286a1 1 0 0 1 .992-1.142c2.061 0 4-.566 4-1a1 1 0 0 1 1.832-.555l1.362 2.044 7.442-6.614-5.91-7.6-15.868 8.4-9.858 38.451v1.874h2a1 1 0 0 1 .609.207c.128.098 12.877 9.793 24.391 9.793 11.332 0 14.431-1.824 14.461-1.843a1.035 1.035 0 0 1 .986-.052c.055.028 5.686 2.743 17.553 2.889v-27.513c-1.407-1.08-6.854-4.9-12.713-4.178-3.628.445-6.815 2.557-9.474 6.278l-1.626-1.162c3-4.2 6.658-6.59 10.871-7.1 7.669-.926 14.313 4.681 14.592 4.922a1 1 0 0 1 .35.759v29a1 1 0 0 1 -1 1z"/><path d="m31.219 13.625-4-5a1 1 0 0 1 -.114-1.072l1-2 1.79.894-.714 1.428 3.6 4.5z"/><path d="m28.219 16.625-4-5a1 1 0 0 1 -.114-1.072l1-2 1.79.894-.714 1.428 3.6 4.5z"/><path d="m29 59c-7.278 0-13.384-5.019-13.641-5.231l1.281-1.538c.06.048 5.819 4.769 12.36 4.769a34.8 34.8 0 0 0 11.63-1.929l.741 1.858a36.162 36.162 0 0 1 -12.371 2.071z"/><path d="m63 60a35.1 35.1 0 0 1 -14.447-3.1l.893-1.79a33.7 33.7 0 0 0 13.554 2.89z"/><path d="m44.8 38.6-1.6-1.2c.338-.451 3.4-4.4 6.8-4.4a8.646 8.646 0 0 1 5.707 2.293l-1.414 1.414a6.715 6.715 0 0 0 -4.293-1.707c-2.042 0-4.446 2.6-5.2 3.6z"/><path d="m38 20h2v6h-2z"/><path d="m36 22h6v2h-6z"/><path d="m42 5h2v6h-2z"/><path d="m40 7h6v2h-6z"/><path d="m56 21h2v6h-2z"/><path d="m54 23h6v2h-6z"/></g></svg>